HIERARCHY
ROOT Hips
{
    OFFSET   0.000000   0.000000   0.000000
    CHANNELS 6 Xposition Yposition Zposition Zrotation Xrotation Yrotation
    JOINT Chest
    {
        OFFSET   0.000000   8.007230   0.000000
        CHANNELS 3 Zrotation Xrotation Yrotation
        JOINT Chest2
        {
            OFFSET   0.000000  22.077100   0.000000
            CHANNELS 3 Zrotation Xrotation Yrotation
            JOINT Neck
            {
                OFFSET   0.000000  23.255100   0.000000
                CHANNELS 3 Zrotation Xrotation Yrotation
                JOINT Head
                {
                    OFFSET   0.000000  14.370100   1.956600
                    CHANNELS 3 Zrotation Xrotation Yrotation
                    End Site
                    {
                        OFFSET   0.000000  19.566000   0.000000
                    }
                }
            }
            JOINT LeftCollar
            {
                OFFSET   3.911900  19.017000  -0.467063
                CHANNELS 3 Zrotation Xrotation Yrotation
                JOINT LeftShoulder
                {
                    OFFSET  10.383700   0.000000   0.000000
                    CHANNELS 3 Zrotation Xrotation Yrotation
                    JOINT LeftElbow
                    {
                        OFFSET  26.662100   0.001193   0.000980
                        CHANNELS 3 Zrotation Xrotation Yrotation
                        JOINT LeftWrist
                        {
                            OFFSET  28.869000  -0.000059  -0.000082
                            CHANNELS 3 Zrotation Xrotation Yrotation
                            JOINT LeftFinger0
                            {
                                OFFSET   2.044650  -2.323450   3.252850
                                CHANNELS 3 Zrotation Xrotation Yrotation
                                JOINT LeftFinger01
                                {
                                    OFFSET   3.088130   0.000000   0.000000
                                    CHANNELS 3 Zrotation Xrotation Yrotation
                                    JOINT LeftFinger02
                                    {
                                        OFFSET   2.639460   0.000000   0.000000
                                        CHANNELS 3 Zrotation Xrotation Yrotation
                                        End Site
                                        {
                                            OFFSET   2.582190   0.000000   0.000000
                                        }
                                    }
                                }
                            }
                            JOINT LeftFinger1
                            {
                                OFFSET   8.364480   0.000000   3.252850
                                CHANNELS 3 Zrotation Xrotation Yrotation
                                JOINT LeftFinger11
                                {
                                    OFFSET   4.646930   0.000000   0.000000
                                    CHANNELS 3 Zrotation Xrotation Yrotation
                                    JOINT LeftFinger12
                                    {
                                        OFFSET   2.323470   0.000000   0.000000
                                        CHANNELS 3 Zrotation Xrotation Yrotation
                                        End Site
                                        {
                                            OFFSET   2.273050   0.000000   0.000000
                                        }
                                    }
                                }
                            }
                            JOINT LeftFinger2
                            {
                                OFFSET   8.364490   0.000016   1.078090
                                CHANNELS 3 Zrotation Xrotation Yrotation
                                JOINT LeftFinger21
                                {
                                    OFFSET   5.111610   0.000000   0.000000
                                    CHANNELS 3 Zrotation Xrotation Yrotation
                                    JOINT LeftFinger22
                                    {
                                        OFFSET   2.788150   0.000016   0.000000
                                        CHANNELS 3 Zrotation Xrotation Yrotation
                                        End Site
                                        {
                                            OFFSET   2.727660   0.000000   0.000000
                                        }
                                    }
                                }
                            }
                            JOINT LeftFinger3
                            {
                                OFFSET   7.899780   0.000015  -1.078090
                                CHANNELS 3 Zrotation Xrotation Yrotation
                                JOINT LeftFinger31
                                {
                                    OFFSET   4.646930   0.000000   0.000000
                                    CHANNELS 3 Zrotation Xrotation Yrotation
                                    JOINT LeftFinger32
                                    {
                                        OFFSET   2.323470   0.000000   0.000000
                                        CHANNELS 3 Zrotation Xrotation Yrotation
                                        End Site
                                        {
                                            OFFSET   2.273050   0.000000   0.000000
                                        }
                                    }
                                }
                            }
                            JOINT LeftFinger4
                            {
                                OFFSET   7.435090   0.000000  -3.252850
                                CHANNELS 3 Zrotation Xrotation Yrotation
                                JOINT LeftFinger41
                                {
                                    OFFSET   3.717550   0.000000   0.000000
                                    CHANNELS 3 Zrotation Xrotation Yrotation
                                    JOINT LeftFinger42
                                    {
                                        OFFSET   1.858770   0.000000   0.000000
                                        CHANNELS 3 Zrotation Xrotation Yrotation
                                        End Site
                                        {
                                            OFFSET   1.818440   0.000000   0.000000
                                        }
                                    }
                                }
                            }
                        }
                    }
                }
            }
            JOINT RightCollar
            {
                OFFSET  -3.911910  19.017000  -0.467062
                CHANNELS 3 Zrotation Xrotation Yrotation
                JOINT RightShoulder
                {
                    OFFSET -10.383700   0.000014   0.000000
                    CHANNELS 3 Zrotation Xrotation Yrotation
                    JOINT RightElbow
                    {
                        OFFSET -26.662100   0.001225   0.001091
                        CHANNELS 3 Zrotation Xrotation Yrotation
                        JOINT RightWrist
                        {
                            OFFSET -28.869000  -0.000020  -0.000085
                            CHANNELS 3 Zrotation Xrotation Yrotation
                            JOINT RightFinger0
                            {
                                OFFSET  -2.044650  -2.323490   3.252850
                                CHANNELS 3 Zrotation Xrotation Yrotation
                                JOINT RightFinger01
                                {
                                    OFFSET  -3.088130   0.000000   0.000000
                                    CHANNELS 3 Zrotation Xrotation Yrotation
                                    JOINT RightFinger02
                                    {
                                        OFFSET  -2.639460   0.000000   0.000000
                                        CHANNELS 3 Zrotation Xrotation Yrotation
                                        End Site
                                        {
                                            OFFSET  -2.582190   0.000000   0.000000
                                        }
                                    }
                                }
                            }
                            JOINT RightFinger1
                            {
                                OFFSET  -8.364480   0.000000   3.252850
                                CHANNELS 3 Zrotation Xrotation Yrotation
                                JOINT RightFinger11
                                {
                                    OFFSET  -4.646930   0.000000   0.000000
                                    CHANNELS 3 Zrotation Xrotation Yrotation
                                    JOINT RightFinger12
                                    {
                                        OFFSET  -2.323470   0.000000   0.000000
                                        CHANNELS 3 Zrotation Xrotation Yrotation
                                        End Site
                                        {
                                            OFFSET  -2.273050   0.000000   0.000000
                                        }
                                    }
                                }
                            }
                            JOINT RightFinger2
                            {
                                OFFSET  -8.364480   0.000000   1.078090
                                CHANNELS 3 Zrotation Xrotation Yrotation
                                JOINT RightFinger21
                                {
                                    OFFSET  -5.111620   0.000000   0.000000
                                    CHANNELS 3 Zrotation Xrotation Yrotation
                                    JOINT RightFinger22
                                    {
                                        OFFSET  -2.788160   0.000000   0.000000
                                        CHANNELS 3 Zrotation Xrotation Yrotation
                                        End Site
                                        {
                                            OFFSET  -2.727660   0.000000   0.000000
                                        }
                                    }
                                }
                            }
                            JOINT RightFinger3
                            {
                                OFFSET  -7.899780   0.000000  -1.078090
                                CHANNELS 3 Zrotation Xrotation Yrotation
                                JOINT RightFinger31
                                {
                                    OFFSET  -4.646930   0.000000   0.000000
                                    CHANNELS 3 Zrotation Xrotation Yrotation
                                    JOINT RightFinger32
                                    {
                                        OFFSET  -2.323470   0.000000   0.000000
                                        CHANNELS 3 Zrotation Xrotation Yrotation
                                        End Site
                                        {
                                            OFFSET  -2.273050   0.000000   0.000000
                                        }
                                    }
                                }
                            }
                            JOINT RightFinger4
                            {
                                OFFSET  -7.435090   0.000000  -3.252850
                                CHANNELS 3 Zrotation Xrotation Yrotation
                                JOINT RightFinger41
                                {
                                    OFFSET  -3.717550   0.000000   0.000000
                                    CHANNELS 3 Zrotation Xrotation Yrotation
                                    JOINT RightFinger42
                                    {
                                        OFFSET  -1.858760   0.000000   0.000000
                                        CHANNELS 3 Zrotation Xrotation Yrotation
                                        End Site
                                        {
                                            OFFSET  -1.818440   0.000000   0.000000
                                        }
                                    }
                                }
                            }
                        }
                    }
                }
            }
        }
    }
    JOINT LeftHip
    {
        OFFSET   9.783030   0.000000   0.000000
        CHANNELS 3 Zrotation Xrotation Yrotation
        JOINT LeftKnee
        {
            OFFSET   0.000063 -41.789100   0.000608
            CHANNELS 3 Zrotation Xrotation Yrotation
            JOINT LeftAnkle
            {
                OFFSET   0.000048 -41.133200  -0.000184
                CHANNELS 3 Zrotation Xrotation Yrotation
                JOINT LeftToe
                {
                    OFFSET   0.000000  -6.358960  14.674500
                    CHANNELS 3 Zrotation Xrotation Yrotation
                    End Site
                    {
                        OFFSET   0.000000   0.000000   3.913200
                    }
                }
            }
        }
    }
    JOINT RightHip
    {
        OFFSET  -9.783030   0.000000   0.000000
        CHANNELS 3 Zrotation Xrotation Yrotation
        JOINT RightKnee
        {
            OFFSET   0.000071 -41.789100   0.001239
            CHANNELS 3 Zrotation Xrotation Yrotation
            JOINT RightAnkle
            {
                OFFSET   0.000037 -41.133200  -0.000166
                CHANNELS 3 Zrotation Xrotation Yrotation
                JOINT RightToe
                {
                    OFFSET   0.000000  -6.358960  14.674500
                    CHANNELS 3 Zrotation Xrotation Yrotation
                    End Site
                    {
                        OFFSET   0.000000   0.000000   3.913200
                    }
                }
            }
        }
    }
}
MOTION
Frames: 5
Frame Time:   0.016667
  0.769189  89.466200   1.272590  -0.995591  -3.112210   2.231970   1.350560   2.238750  -0.628185   2.728730   4.461910  -1.310530  -1.389220   0.732204   0.021836  -2.282430   1.482140   3.293380  -3.734660   2.362730  11.001900 -80.164900   5.987640   0.752204  -0.214164   5.368730 -13.555000  13.779600  -3.666000   0.496784  39.418700  35.963600 -55.471400 -35.908700  -0.003363   0.007564 -13.268500  -0.004374   0.003314 -36.585600   0.856782  -1.154060 -29.940600  -0.009989  -0.001601 -20.958500  -0.003426   0.003773 -32.758300  -3.662570   5.685260 -49.409600  -0.000480  -0.003340 -32.906800  -0.009735  -0.003736 -28.397700  -4.544440   8.337620 -39.682400  -0.008215  -0.007745 -26.428500  -0.001591  -0.007142 -36.304200  -5.651100   7.633880 -55.022400  -0.009804  -0.008248 -36.644900   0.005191  -0.005886   4.808720   3.893970   6.719880  72.788300  -8.012410  -4.600480   3.872160  -4.851180  11.847600 -17.570600  -3.935100   2.962870 -39.995000  34.170300  69.970400  28.989400   0.002633  -0.001399   9.494710   0.002151   0.006284  28.734700  -0.047355  -0.097489  23.510300  -0.007946  -0.000574  16.457200  -0.004435   0.011112  28.122800  -0.764303  -1.429700  32.904300  -0.001954  -0.001515  21.914200  -0.010419   0.004265  28.277600  -2.983900  -5.527140  35.324200  -0.011071  -0.001431  23.525900   0.001225   0.003045  34.464300  -3.562920  -5.173460  51.938100  -0.012719   0.006225  34.590800   0.001316  -0.002499   2.618540   4.625970  -2.470890   0.542929   1.248500  11.816300  -2.064480  -3.780220   2.772530   0.000000   0.000000   0.000000  -1.132710   4.560750  -5.783880  -0.289178   3.458590 -15.806700   2.033140  -3.847340   3.212820  -0.000000   0.000000   0.000000
  0.783353  89.466400   1.291720  -0.992725  -3.150500   2.254850   1.350520   2.262950  -0.626456   2.728960   4.510340  -1.307670  -1.391450   0.762806   0.021717  -2.287170   1.544230   3.283990  -3.734410   2.361290  11.003500 -80.141900   6.050540   0.749043  -0.216406   5.353610 -13.591500  13.784200  -3.694660   0.463668  39.415900  35.961200 -55.466700 -35.907500  -0.003359   0.007570 -13.267600  -0.004359   0.003314 -36.598700   0.879363  -1.183890 -29.951800  -0.009988  -0.001589 -20.966300  -0.003423   0.003783 -32.777100  -3.662600   5.680140 -49.437700  -0.000466  -0.003337 -32.925500  -0.009737  -0.003734 -28.400800  -4.534150   8.318160 -39.709000  -0.008204  -0.007735 -26.446200  -0.001590  -0.007133 -36.319700  -5.639490   7.614750 -55.042900  -0.009807  -0.008240 -36.658500   0.005187  -0.005879   4.811240   3.877130   6.714660  72.783000  -8.009720  -4.618830   3.881230  -4.856160  11.820300 -17.590200  -3.893250   2.988750 -39.971000  34.185200  70.000400  29.012600   0.002628  -0.001380   9.506290   0.002146   0.006270  28.743300  -0.047353  -0.091934  23.517300  -0.007948  -0.000575  16.462200  -0.004444   0.011114  28.129900  -0.750089  -1.402550  32.953100  -0.001910  -0.001518  21.946700  -0.010426   0.004265  28.288900  -2.970160  -5.499330  35.424400  -0.011079  -0.001432  23.592700   0.001222   0.003042  34.514100  -3.547970  -5.144990  52.010200  -0.012723   0.006226  34.638900   0.001314  -0.002497   2.612960   4.675230  -2.490230   0.539085   1.251340  11.792100  -2.061980  -3.793820   2.793480   0.000000   0.000000   0.000000  -1.149910   4.622690  -5.789160  -0.279438   3.451510 -15.834800   2.044990  -3.857670   3.221780  -0.000000   0.000000   0.000000
  0.807190  89.466600   1.324160  -0.988105  -3.211740   2.292210   1.350380   2.300840  -0.618537   2.728850   4.586300  -1.292780  -1.401370   0.821175   0.021599  -2.303580   1.662500   3.274700  -3.733620   2.356130  11.009500 -80.107100   6.152840   0.745937  -0.221882   5.337680 -13.664200  13.787300  -3.738450   0.407339  39.414700  35.957500 -55.452100 -35.901800  -0.003342   0.007576 -13.263500  -0.004333   0.003314 -36.617700   0.910901  -1.225520 -29.967900  -0.009984  -0.001560 -20.977500  -0.003416   0.003807 -32.806800  -3.662660   5.672050 -49.482000  -0.000431  -0.003330 -32.955000  -0.009742  -0.003729 -28.405100  -4.519830   8.291050 -39.748900  -0.008175  -0.007709 -26.472800  -0.001589  -0.007110 -36.346100  -5.625010   7.587650 -55.079000  -0.009814  -0.008218 -36.682600   0.005177  -0.005862   4.816030   3.846410   6.700090  72.774900  -7.999490  -4.662090   3.908870  -4.888150  11.793600 -17.629300  -3.808260   3.034370 -39.949100  34.195200  70.034300  29.055800   0.002612  -0.001354   9.527860   0.002137   0.006250  28.767000  -0.047352  -0.086380  23.536700  -0.007952  -0.000579  16.475700  -0.004467   0.011118  28.143600  -0.735875  -1.375390  33.051400  -0.001818  -0.001525  22.012200  -0.010442   0.004265  28.308400  -2.951330  -5.460300  35.604000  -0.011100  -0.001435  23.712300   0.001212   0.003035  34.606900  -3.533090  -5.103780  52.146600  -0.012730   0.006226  34.729700   0.001309  -0.002489   2.601610   4.758100  -2.517680   0.533626   1.254260  11.750800  -2.055650  -3.815040   2.825400   0.000000   0.000000   0.000000  -1.175500   4.721990  -5.799920  -0.265016   3.441950 -15.867600   2.065510  -3.876820   3.230780  -0.000000   0.000000   0.000000
  0.826545  89.465500   1.351550  -0.985628  -3.256140   2.320090   1.351130   2.326690  -0.601710   2.729970   4.638370  -1.259770  -1.422090   0.881825   0.022311  -2.337380   1.785040   3.289430  -3.732290   2.345600  11.022300 -80.085500   6.230400   0.761902  -0.229141   5.346950 -13.749300  13.777500  -3.763340   0.356787  39.421100  35.954600 -55.423200 -35.889000  -0.003309   0.007559 -13.254400  -0.004315   0.003321 -36.625500   0.922152  -1.240300 -29.974500  -0.009973  -0.001513 -20.982100  -0.003406   0.003846 -32.826900  -3.662700   5.666590 -49.511800  -0.000378  -0.003319 -32.974900  -0.009751  -0.003725 -28.406500  -4.515110   8.281990 -39.770300  -0.008132  -0.007669 -26.487000  -0.001588  -0.007074 -36.368600  -5.622360   7.577280 -55.111800  -0.009826  -0.008182 -36.704400   0.005165  -0.005837   4.820940   3.816650   6.678260  72.790600  -7.982670  -4.723120   3.974630  -5.004570  11.797800 -17.687700  -3.677560   3.087460 -39.843800  34.061600  69.927000  29.099400   0.002585  -0.001347   9.549700   0.002131   0.006242  28.806900  -0.061205  -0.111414  23.569500  -0.007958  -0.000589  16.498600  -0.004502   0.011122  28.160000  -0.738388  -1.379820  33.174100  -0.001697  -0.001532  22.093900  -0.010466   0.004261  28.326000  -2.944700  -5.443240  35.785400  -0.011134  -0.001441  23.833100   0.001197   0.003026  34.710800  -3.533770  -5.081230  52.302300  -0.012740   0.006226  34.833300   0.001303  -0.002479   2.588180   4.829480  -2.530720   0.533045   1.240700  11.717200  -2.045620  -3.828710   2.844580  -0.000000   0.000000   0.000000  -1.190160   4.792870  -5.816420  -0.256278   3.440240 -15.871300   2.084750  -3.897730   3.223000   0.000000   0.000000   0.000000
  0.846570  89.463000   1.379160  -0.983868  -3.295890   2.347800   1.354100   2.348310  -0.578662   2.735310   4.682120  -1.214280  -1.450760   0.954343   0.024154  -2.385260   1.931480   3.329080  -3.730780   2.333020  11.036500 -80.074000   6.302830   0.784071  -0.238041   5.369010 -13.845800  13.763100  -3.787110   0.311096  39.431100  35.952800 -55.391500 -35.872500  -0.003264   0.007543 -13.242400  -0.004293   0.003328 -36.632700   0.928442  -1.248420 -29.980500  -0.009960  -0.001453 -20.986300  -0.003393   0.003896 -32.845700  -3.662740   5.661490 -49.539700  -0.000311  -0.003305 -32.993500  -0.009762  -0.003718 -28.407300  -4.512260   8.276450 -39.788500  -0.008077  -0.007618 -26.499100  -0.001586  -0.007026 -36.392600  -5.621270   7.569950 -55.147200  -0.009842  -0.008135 -36.728000   0.005148  -0.005805   4.826730   3.782990   6.645120  72.835500  -7.952080  -4.799720   4.037920  -5.164890  11.815600 -17.726600  -3.590000   3.120800 -39.660200  33.827400  69.710700  29.149000   0.002551  -0.001343   9.574530   0.002119   0.006229  28.854700  -0.097002  -0.176004  23.608700  -0.007964  -0.000600  16.526100  -0.004547   0.011127  28.176400  -0.755979  -1.410830  33.299900  -0.001577  -0.001543  22.177700  -0.010495   0.004255  28.342800  -2.943170  -5.437400  35.958500  -0.011173  -0.001449  23.948400   0.001177   0.003013  34.811100  -3.537770  -5.071430  52.451900  -0.012751   0.006224  34.932900   0.001295  -0.002466   2.572110   4.894910  -2.535760   0.535580   1.222040  11.679600  -2.033140  -3.841310   2.860330  -0.000000   0.000000  -0.000000  -1.199810   4.859590  -5.827740  -0.249926   3.438250 -15.874000   2.102030  -3.917990   3.205690   0.000000   0.000000  -0.000000
